<?xml version="1.0" encoding="UTF-8" standalone="no"?>
<svg
   xmlns:dc="http://purl.org/dc/elements/1.1/"
   xmlns:cc="http://creativecommons.org/ns#"
   xmlns:rdf="http://www.w3.org/1999/02/22-rdf-syntax-ns#"
   xmlns:svg="http://www.w3.org/2000/svg"
   xmlns="http://www.w3.org/2000/svg"
   xmlns:sodipodi="http://sodipodi.sourceforge.net/DTD/sodipodi-0.dtd"
   xmlns:inkscape="http://www.inkscape.org/namespaces/inkscape"
   width="180.30798mm"
   height="128.15085mm"
   viewBox="0 0 180.30798 128.15085"
   version="1.1"
   id="svg8"
   inkscape:version="1.0 (6e3e5246a0, 2020-05-07)"
   sodipodi:docname="laranja.svg">
  <defs
     id="defs2" />
  <sodipodi:namedview
     id="base"
     pagecolor="#ffffff"
     bordercolor="#666666"
     borderopacity="1.0"
     inkscape:pageopacity="0.0"
     inkscape:pageshadow="2"
     inkscape:zoom="0.65359654"
     inkscape:cx="145.84701"
     inkscape:cy="302.06582"
     inkscape:document-units="mm"
     inkscape:current-layer="layer1"
     inkscape:document-rotation="0"
     showgrid="false"
     inkscape:snap-bbox="true"
     inkscape:bbox-nodes="false"
     inkscape:snap-bbox-midpoints="true"
     inkscape:snap-intersection-paths="true"
     inkscape:window-width="1502"
     inkscape:window-height="902"
     inkscape:window-x="0"
     inkscape:window-y="119"
     inkscape:window-maximized="0" />
  <metadata
     id="metadata5">
    <rdf:RDF>
      <cc:Work
         rdf:about="">
        <dc:format>image/svg+xml</dc:format>
        <dc:type
           rdf:resource="http://purl.org/dc/dcmitype/StillImage" />
        <dc:title />
      </cc:Work>
    </rdf:RDF>
  </metadata>
  <g
     inkscape:label="Layer 1"
     inkscape:groupmode="layer"
     id="layer1"
     transform="translate(-39.730822,-49.196878)">
    <path
       id="ellipse835"
       style="fill:#ffc041;fill-opacity:1;stroke-width:3.333"
       d="M 429.3418,185.94141 C 306.63373,186.04928 206.67272,235.24519 204.51562,296.58984 L 159.1582,440.32812 c 0,0 -10.10008,24.31979 -8.89453,28.18555 -5.5e-4,62.20327 125.12476,112.62905 279.47461,112.62891 154.34909,-2.9e-4 295.86989,-52.62609 279.47266,-112.62891 -4.89314,-17.90559 -9.08789,-28.48828 -9.08789,-28.48828 L 654.99414,298.57031 c 4.3e-4,-62.20293 -100.84999,-112.62857 -225.25586,-112.6289 z"
       transform="scale(0.26458333)"
       sodipodi:nodetypes="cccccsccsc" />
    <path
       transform="matrix(0.26458333,0,0,0.26458333,39.730822,49.196878)"
       d="M 279.17773 0 A 225.25704 112.62851 0 0 0 54.316406 112.62891 A 225.25704 112.62851 0 0 0 279.57422 225.25781 A 225.25704 112.62851 0 0 0 504.83008 112.62891 A 225.25704 112.62851 0 0 0 279.57422 0 A 225.25704 112.62851 0 0 0 279.17773 0 z M 279.52734 64.443359 A 96.371119 48.185556 0 0 1 279.57422 64.443359 A 96.371119 48.185556 0 0 1 375.94531 112.62891 A 96.371119 48.185556 0 0 1 279.57422 160.81445 A 96.371119 48.185556 0 0 1 183.20312 112.62891 A 96.371119 48.185556 0 0 1 279.52734 64.443359 z "
       style="fill:#ffffff;fill-opacity:0.74641412;stroke-width:3.333"
       id="ellipse841" />
    <g
       transform="matrix(0.64345327,0,0,0.64345327,204.2961,124.66073)"
       id="g847">
      <circle
         style="fill:#ffaa00;fill-opacity:1;stroke-width:0.500999"
         id="path833"
         cx="-29.072693"
         cy="27.30965"
         r="38.568405" />
      <g
         id="g841"
         transform="rotate(30,-25.760954,22.539904)">
        <ellipse
           ry="7.303484"
           rx="3.062753"
           cy="-5.4040365"
           cx="-14.245221"
           id="path835"
           style="fill:#00ff00;fill-opacity:1;stroke-width:0.446668" />
        <ellipse
           transform="rotate(45)"
           inkscape:transform-center-y="-4.6237853"
           inkscape:transform-center-x="-4.5153912"
           style="fill:#00ff00;fill-opacity:1;stroke-width:0.446668"
           id="ellipse837"
           cx="-9.3469839"
           cy="4.3046789"
           rx="3.062753"
           ry="7.303484" />
      </g>
    </g>
  </g>
</svg>
