<?xml version="1.0" encoding="UTF-8" standalone="no"?>
<svg
   xmlns:dc="http://purl.org/dc/elements/1.1/"
   xmlns:cc="http://creativecommons.org/ns#"
   xmlns:rdf="http://www.w3.org/1999/02/22-rdf-syntax-ns#"
   xmlns:svg="http://www.w3.org/2000/svg"
   xmlns="http://www.w3.org/2000/svg"
   xmlns:sodipodi="http://sodipodi.sourceforge.net/DTD/sodipodi-0.dtd"
   xmlns:inkscape="http://www.inkscape.org/namespaces/inkscape"
   sodipodi:docname="red_velvet_camada3.svg"
   inkscape:version="1.0 (6e3e5246a0, 2020-05-07)"
   id="svg1210"
   version="1.1"
   viewBox="0 0 280.61139 166.55312"
   height="166.55312mm"
   width="280.61139mm">
  <defs
     id="defs1204" />
  <sodipodi:namedview
     units="in"
     inkscape:snap-global="false"
     inkscape:bbox-paths="true"
     inkscape:snap-intersection-paths="true"
     inkscape:object-paths="true"
     inkscape:snap-bbox-midpoints="true"
     inkscape:snap-bbox-edge-midpoints="true"
     inkscape:bbox-nodes="true"
     inkscape:snap-bbox="true"
     inkscape:window-maximized="0"
     inkscape:window-y="0"
     inkscape:window-x="0"
     inkscape:window-height="1021"
     inkscape:window-width="1916"
     showgrid="false"
     inkscape:document-rotation="0"
     inkscape:current-layer="layer1"
     inkscape:document-units="mm"
     inkscape:cy="315.02049"
     inkscape:cx="428.38227"
     inkscape:zoom="0.68850111"
     inkscape:pageshadow="2"
     inkscape:pageopacity="0.0"
     borderopacity="1.0"
     bordercolor="#666666"
     pagecolor="#ffffff"
     id="base" />
  <metadata
     id="metadata1207">
    <rdf:RDF>
      <cc:Work
         rdf:about="">
        <dc:format>image/svg+xml</dc:format>
        <dc:type
           rdf:resource="http://purl.org/dc/dcmitype/StillImage" />
        <dc:title />
      </cc:Work>
    </rdf:RDF>
  </metadata>
  <g
     transform="translate(34.472358,-64.890107)"
     id="layer1"
     inkscape:groupmode="layer"
     inkscape:label="Layer 1">
    <g
       id="g858"
       transform="matrix(1.0434567,0,0,0.74321506,-7.5368628,17.503956)">
      <g
         id="g847"
         transform="matrix(0.8730205,0,0,0.60421585,-277.43489,252.42688)"
         style="stroke:none">
        <path
           transform="matrix(0.26458333,0,0,0.26458333,-34.472358,64.890107)"
           d="m 1720.7402,-686.38672 a 378.80092,189.40046 0 0 0 -378.2304,185.25977 v 0.0215 a 378.80092,189.40046 0 0 0 -0.09,4.11914 378.80092,189.40046 0 0 0 0.088,4.08203 l -0.074,269.47461 a 378.80092,189.40046 0 0 0 -0.014,1.63867 378.80092,189.40046 0 0 0 0.014,1.6211 v 0.0937 0 a 378.80092,189.40046 0 0 0 378.7852,187.685545 378.80092,189.40046 0 0 0 378.8008,-189.400395 378.80092,189.40046 0 0 0 0,-0.24023 v -274.95508 a 378.80092,189.40046 0 0 0 -378.8008,-189.40039 378.80092,189.40046 0 0 0 -0.4805,0 z"
           style="fill:#db1c43;fill-opacity:1;stroke:none;stroke-width:1.89354"
           id="path843" />
        <ellipse
           style="fill:#ffe1e1;fill-opacity:1;stroke:none;stroke-width:0.500999"
           id="ellipse845"
           cx="420.93375"
           cy="-66.604195"
           rx="100.22441"
           ry="50.112206" />
      </g>
      <g
         style="stroke:none"
         transform="matrix(0.8730205,0,0,0.60421585,-277.43489,197.46951)"
         id="g863">
        <path
           id="path859"
           style="fill:#db1c43;fill-opacity:1;stroke:none;stroke-width:1.89354"
           d="m 1720.7402,-686.38672 a 378.80092,189.40046 0 0 0 -378.2304,185.25977 v 0.0215 a 378.80092,189.40046 0 0 0 -0.09,4.11914 378.80092,189.40046 0 0 0 0.088,4.08203 l -0.074,269.47461 a 378.80092,189.40046 0 0 0 -0.014,1.63867 378.80092,189.40046 0 0 0 0.014,1.6211 v 0.0937 0 a 378.80092,189.40046 0 0 0 378.7852,187.685545 378.80092,189.40046 0 0 0 378.8008,-189.400395 378.80092,189.40046 0 0 0 0,-0.24023 v -274.95508 a 378.80092,189.40046 0 0 0 -378.8008,-189.40039 378.80092,189.40046 0 0 0 -0.4805,0 z"
           transform="matrix(0.26458333,0,0,0.26458333,-34.472358,64.890107)" />
        <ellipse
           ry="50.112206"
           rx="100.22441"
           cy="-66.604195"
           cx="420.93375"
           id="ellipse861"
           style="fill:#ffe1e1;fill-opacity:1;stroke:none;stroke-width:0.500999" />
      </g>
      <path
         id="ellipse837"
         style="fill:#db1c43;fill-opacity:1;stroke:none;stroke-width:0.36387"
         d="M 89.93811,74.671928 A 87.497965,30.278589 0 0 0 2.5719279,104.28857 v 0.003 a 87.497965,30.278589 0 0 0 -0.020778,0.65851 87.497965,30.278589 0 0 0 0.020341,0.65257 l -0.017111,43.07969 a 87.497965,30.278589 0 0 0 -0.00349,0.26196 87.497965,30.278589 0 0 0 0.00349,0.25916 v 0.015 0 a 87.497965,30.278589 0 0 0 87.4943331,30.00444 87.497965,30.278589 0 0 0 87.497937,-30.27858 87.497965,30.278589 0 0 0 0,-0.0384 v -43.95581 a 87.497965,30.278589 0 0 0 -87.497937,-30.278587 87.497965,30.278589 0 0 0 -0.110987,0 z" />
      <path
         id="ellipse835"
         style="fill:#fff6f6;fill-opacity:1;stroke:none;stroke-width:0.363869"
         d="M 89.989575,84.019666 C 60.952852,85.633779 33.730588,89.034262 17.480962,97.381777 L 2.551185,97.371767 v 0.111718 7.416775 c -4.37e-5,0.0168 -4.37e-5,0.0336 0,0.0504 4.801e-4,16.72234 39.174761,30.27837 87.498375,30.27829 48.32344,-1e-5 87.49746,-13.55601 87.49794,-30.27829 8e-5,-0.0236 8e-5,-0.0472 0,-0.0708 v -7.393306 l -14.74479,-0.0096 C 146.56764,89.068355 119.27343,84.019616 90.050023,84.019616 h -0.05954 z"
         sodipodi:nodetypes="scccccsscccscs" />
      <ellipse
         style="fill:#fff6f6;fill-opacity:1;stroke:#ffd8d8;stroke-width:0.10712;stroke-miterlimit:4;stroke-dasharray:none;stroke-opacity:1"
         id="ellipse881"
         cx="90.04892"
         cy="95.705879"
         rx="87.497963"
         ry="30.278589" />
    </g>
  </g>
</svg>
