<?xml version="1.0" encoding="UTF-8" standalone="no"?>
<svg
   xmlns:dc="http://purl.org/dc/elements/1.1/"
   xmlns:cc="http://creativecommons.org/ns#"
   xmlns:rdf="http://www.w3.org/1999/02/22-rdf-syntax-ns#"
   xmlns:svg="http://www.w3.org/2000/svg"
   xmlns="http://www.w3.org/2000/svg"
   xmlns:sodipodi="http://sodipodi.sourceforge.net/DTD/sodipodi-0.dtd"
   xmlns:inkscape="http://www.inkscape.org/namespaces/inkscape"
   sodipodi:docname="pinkcake.svg"
   inkscape:version="1.0 (6e3e5246a0, 2020-05-07)"
   id="svg1607"
   version="1.1"
   viewBox="0 0 15.818612 15.129374"
   height="15.129374mm"
   width="15.818612mm">
  <defs
     id="defs1601" />
  <sodipodi:namedview
     inkscape:window-maximized="0"
     inkscape:window-y="119"
     inkscape:window-x="414"
     inkscape:window-height="902"
     inkscape:window-width="1502"
     showgrid="false"
     inkscape:document-rotation="0"
     inkscape:current-layer="layer1"
     inkscape:document-units="mm"
     inkscape:cy="-100.03992"
     inkscape:cx="-36.070941"
     inkscape:zoom="1.8635403"
     inkscape:pageshadow="2"
     inkscape:pageopacity="0.0"
     borderopacity="1.0"
     bordercolor="#666666"
     pagecolor="#ffffff"
     id="base" />
  <metadata
     id="metadata1604">
    <rdf:RDF>
      <cc:Work
         rdf:about="">
        <dc:format>image/svg+xml</dc:format>
        <dc:type
           rdf:resource="http://purl.org/dc/dcmitype/StillImage" />
        <dc:title></dc:title>
      </cc:Work>
    </rdf:RDF>
  </metadata>
  <g
     transform="translate(-291.85407,-189.7337)"
     id="layer1"
     inkscape:groupmode="layer"
     inkscape:label="Layer 1">
    <g
       transform="matrix(0.35277777,0,0,-0.35277777,-154.75939,440.52496)"
       id="g1586">
      <path
         id="path46"
         style="fill:#5b3706;fill-opacity:1;fill-rule:nonzero;stroke:none"
         d="m 1271.4956,671.6641 v 0 c -4.046,4.511 -3.669,11.447 0.842,15.493 l 20.196,18.115 c 4.511,4.046 11.447,3.669 15.493,-0.842 4.046,-4.511 3.67,-11.447 -0.842,-15.493 l -20.195,-18.115 c -4.512,-4.046 -11.448,-3.669 -15.494,0.842" />
      <path
         id="path50"
         style="fill:#ffd9a4;fill-opacity:1;fill-rule:nonzero;stroke:none"
         d="m 1270.6519,673.207 v 0 c -4.062,4.528 -3.683,11.492 0.845,15.553 l 20.133,18.058 c 4.528,4.062 11.492,3.683 15.553,-0.845 4.061,-4.528 3.683,-11.491 -0.845,-15.553 l -20.133,-18.058 c -4.529,-4.061 -11.491,-3.683 -15.553,0.845" />
      <path
         id="path54"
         style="fill:#fb48c4;fill-opacity:1;fill-rule:nonzero;stroke:none"
         d="m 1268.3447,675.0776 v 0 c -3.396,3.787 -3.08,9.61 0.707,13.007 l 22.817,20.466 c 3.788,3.396 9.611,3.08 13.007,-0.707 3.397,-3.787 3.08,-9.61 -0.706,-13.007 l -22.818,-20.466 c -3.787,-3.396 -9.61,-3.08 -13.007,0.707" />
      <path
         id="path58"
         style="fill:none;stroke:#7c065d;stroke-width:1;stroke-linecap:butt;stroke-linejoin:miter;stroke-miterlimit:10;stroke-dasharray:none;stroke-opacity:1"
         d="m 1292.7153,708.4946 c 1.242,-0.182 2.925,-0.646 4,-2 1.659,-2.09 0.341,-4.373 2,-6 1.606,-1.577 3.779,-0.354 5,-2 0.819,-1.105 0.783,-2.928 0,-4 -1.612,-2.206 -6.37,-1.215 -9,0 -2.884,1.332 -2.418,3.843 -6,6 -1.154,0.694 -2.83,1.676 -4,1 -1.097,-0.633 -1.447,-2.548 -1,-4 0.739,-2.402 3.262,-2.244 6,-5 2.05,-2.064 4.011,-5.551 3,-7 -1.023,-1.467 -5.298,-1.143 -8,1 -3.566,2.827 -2.56,7.365 -5,8 -1.901,0.494 -4.736,-1.681 -5,-4 -0.247,-2.164 1.801,-3.953 3,-5 3.042,-2.658 5.597,-2.307 6,-4 0.363,-1.529 -1.262,-3.738 -3,-4 -1.38,-0.208 -2.27,0.896 -6,4 -5.166,4.298 -5.785,4.116 -6,4 -1.101,-0.592 -0.8,-4.38 1,-7 2.501,-3.642 7.161,-3.957 8,-4" />
    </g>
  </g>
</svg>
