<?xml version="1.0" encoding="UTF-8" standalone="no"?>
<svg
   xmlns:dc="http://purl.org/dc/elements/1.1/"
   xmlns:cc="http://creativecommons.org/ns#"
   xmlns:rdf="http://www.w3.org/1999/02/22-rdf-syntax-ns#"
   xmlns:svg="http://www.w3.org/2000/svg"
   xmlns="http://www.w3.org/2000/svg"
   xmlns:sodipodi="http://sodipodi.sourceforge.net/DTD/sodipodi-0.dtd"
   xmlns:inkscape="http://www.inkscape.org/namespaces/inkscape"
   width="180.30798mm"
   height="128.15085mm"
   viewBox="0 0 180.30798 128.15085"
   version="1.1"
   id="svg8"
   inkscape:version="1.0 (6e3e5246a0, 2020-05-07)"
   sodipodi:docname="cenoura.svg">
  <defs
     id="defs2" />
  <sodipodi:namedview
     id="base"
     pagecolor="#ffffff"
     bordercolor="#666666"
     borderopacity="1.0"
     inkscape:pageopacity="0.0"
     inkscape:pageshadow="2"
     inkscape:zoom="0.70404089"
     inkscape:cx="542.75287"
     inkscape:cy="34.759277"
     inkscape:document-units="mm"
     inkscape:current-layer="layer1"
     inkscape:document-rotation="0"
     showgrid="false"
     inkscape:snap-bbox="true"
     inkscape:bbox-nodes="false"
     inkscape:snap-bbox-midpoints="true"
     inkscape:snap-intersection-paths="true"
     inkscape:window-width="1502"
     inkscape:window-height="902"
     inkscape:window-x="0"
     inkscape:window-y="119"
     inkscape:window-maximized="0" />
  <metadata
     id="metadata5">
    <rdf:RDF>
      <cc:Work
         rdf:about="">
        <dc:format>image/svg+xml</dc:format>
        <dc:type
           rdf:resource="http://purl.org/dc/dcmitype/StillImage" />
        <dc:title />
      </cc:Work>
    </rdf:RDF>
  </metadata>
  <g
     inkscape:label="Layer 1"
     inkscape:groupmode="layer"
     id="layer1"
     transform="translate(-39.730822,-49.196878)">
    <path
       id="ellipse835"
       style="fill:#ff9c00;fill-opacity:1;stroke-width:3.333"
       d="M 429.3418,185.94141 C 306.63373,186.04928 206.67272,235.24519 204.51562,296.58984 L 159.1582,440.32812 c 0,0 -10.10008,24.31979 -8.89453,28.18555 -5.5e-4,62.20327 125.12476,112.62905 279.47461,112.62891 154.34909,-2.9e-4 295.86989,-52.62609 279.47266,-112.62891 -4.89314,-17.90559 -9.08789,-28.48828 -9.08789,-28.48828 L 654.99414,298.57031 c 4.3e-4,-62.20293 -100.84999,-112.62857 -225.25586,-112.6289 z"
       transform="scale(0.26458333)"
       sodipodi:nodetypes="cccccsccsc" />
    <path
       transform="matrix(0.26458333,0,0,0.26458333,39.730822,49.196878)"
       d="M 279.17773 0 A 225.25704 112.62851 0 0 0 54.316406 112.62891 A 225.25704 112.62851 0 0 0 279.57422 225.25781 A 225.25704 112.62851 0 0 0 504.83008 112.62891 A 225.25704 112.62851 0 0 0 279.57422 0 A 225.25704 112.62851 0 0 0 279.17773 0 z M 279.52734 64.443359 A 96.371119 48.185556 0 0 1 279.57422 64.443359 A 96.371119 48.185556 0 0 1 375.94531 112.62891 A 96.371119 48.185556 0 0 1 279.57422 160.81445 A 96.371119 48.185556 0 0 1 183.20312 112.62891 A 96.371119 48.185556 0 0 1 279.52734 64.443359 z "
       style="fill:#784421;fill-opacity:0.867175;stroke-width:3.333"
       id="ellipse841" />
    <g
       id="g865"
       transform="rotate(30,-16.522601,510.57759)">
      <path
         id="path847"
         style="fill:#ff9c00;fill-opacity:1;stroke-width:0.881856"
         d="M -1.3288491,76.561569 C 3.2794679,94.881928 -8.67896,118.43056 -15.851907,125.40966 -27.794763,113.953 -33.208938,87.900641 -28.057149,77.608586"
         sodipodi:nodetypes="ccc" />
      <g
         transform="translate(-0.80246625,22.889892)"
         id="g858">
        <path
           id="path849"
           style="fill:#16cf00;fill-opacity:1;stroke-width:0.881856"
           d="m -11.01515,47.163914 a 3.9129846,11.738954 0 0 1 -3.912985,11.738953 3.9129846,11.738954 0 0 1 -3.912985,-11.738953 3.9129846,11.738954 0 0 1 3.912985,-11.738954 3.9129846,11.738954 0 0 1 3.912985,11.738954" />
        <path
           id="ellipse851"
           style="fill:#16cf00;fill-opacity:1;stroke-width:0.881856"
           transform="rotate(38.393657)"
           d="M 28.058334,43.879436 A 3.9129846,11.738954 0 0 1 24.14535,55.61839 3.9129846,11.738954 0 0 1 20.232365,43.879436 3.9129846,11.738954 0 0 1 24.14535,32.140483 3.9129846,11.738954 0 0 1 28.058334,43.879436" />
        <path
           id="ellipse853"
           style="fill:#16cf00;fill-opacity:1;stroke-width:0.881856"
           transform="matrix(-0.78376222,0.62106102,0.62106102,0.78376222,0,0)"
           d="M 51.06582,25.648073 A 3.9129846,11.738954 0 0 1 47.152836,37.387027 3.9129846,11.738954 0 0 1 43.239851,25.648073 3.9129846,11.738954 0 0 1 47.152836,13.90912 3.9129846,11.738954 0 0 1 51.06582,25.648073" />
      </g>
    </g>
  </g>
</svg>
