<?xml version="1.0" encoding="UTF-8" standalone="no"?>
<svg
   xmlns:dc="http://purl.org/dc/elements/1.1/"
   xmlns:cc="http://creativecommons.org/ns#"
   xmlns:rdf="http://www.w3.org/1999/02/22-rdf-syntax-ns#"
   xmlns:svg="http://www.w3.org/2000/svg"
   xmlns="http://www.w3.org/2000/svg"
   xmlns:sodipodi="http://sodipodi.sourceforge.net/DTD/sodipodi-0.dtd"
   xmlns:inkscape="http://www.inkscape.org/namespaces/inkscape"
   sodipodi:docname="limao.svg"
   inkscape:version="1.0 (6e3e5246a0, 2020-05-07)"
   id="svg8"
   version="1.1"
   viewBox="0 0 180.30798 128.15085"
   height="128.15085mm"
   width="180.30798mm">
  <defs
     id="defs2" />
  <sodipodi:namedview
     inkscape:window-maximized="0"
     inkscape:window-y="119"
     inkscape:window-x="0"
     inkscape:window-height="902"
     inkscape:window-width="1502"
     inkscape:snap-intersection-paths="true"
     inkscape:snap-bbox-midpoints="true"
     inkscape:bbox-nodes="false"
     inkscape:snap-bbox="true"
     showgrid="false"
     inkscape:document-rotation="0"
     inkscape:current-layer="layer1"
     inkscape:document-units="mm"
     inkscape:cy="102.47827"
     inkscape:cx="108.72081"
     inkscape:zoom="0.69497215"
     inkscape:pageshadow="2"
     inkscape:pageopacity="0.0"
     borderopacity="1.0"
     bordercolor="#666666"
     pagecolor="#ffffff"
     id="base" />
  <metadata
     id="metadata5">
    <rdf:RDF>
      <cc:Work
         rdf:about="">
        <dc:format>image/svg+xml</dc:format>
        <dc:type
           rdf:resource="http://purl.org/dc/dcmitype/StillImage" />
        <dc:title />
      </cc:Work>
    </rdf:RDF>
  </metadata>
  <g
     transform="translate(-39.730822,-49.196878)"
     id="layer1"
     inkscape:groupmode="layer"
     inkscape:label="Layer 1">
    <path
       sodipodi:nodetypes="cccccsccsc"
       transform="scale(0.26458333)"
       d="M 429.3418,185.94141 C 306.63373,186.04928 206.67272,235.24519 204.51562,296.58984 L 159.1582,440.32812 c 0,0 -10.10008,24.31979 -8.89453,28.18555 -5.5e-4,62.20327 125.12476,112.62905 279.47461,112.62891 154.34909,-2.9e-4 295.86989,-52.62609 279.47266,-112.62891 -4.89314,-17.90559 -9.08789,-28.48828 -9.08789,-28.48828 L 654.99414,298.57031 c 4.3e-4,-62.20293 -100.84999,-112.62857 -225.25586,-112.6289 z"
       style="fill:#d6ff84;fill-opacity:1;stroke-width:3.333"
       id="ellipse835" />
    <path
       id="ellipse841"
       style="fill:#f8ffea;fill-opacity:1;stroke-width:3.333"
       d="M 279.17773 0 A 225.25704 112.62851 0 0 0 54.316406 112.62891 A 225.25704 112.62851 0 0 0 279.57422 225.25781 A 225.25704 112.62851 0 0 0 504.83008 112.62891 A 225.25704 112.62851 0 0 0 279.57422 0 A 225.25704 112.62851 0 0 0 279.17773 0 z M 279.52734 64.443359 A 96.371119 48.185556 0 0 1 279.57422 64.443359 A 96.371119 48.185556 0 0 1 375.94531 112.62891 A 96.371119 48.185556 0 0 1 279.57422 160.81445 A 96.371119 48.185556 0 0 1 183.20312 112.62891 A 96.371119 48.185556 0 0 1 279.52734 64.443359 z "
       transform="matrix(0.26458333,0,0,0.26458333,39.730822,49.196878)" />
    <path
       d="m 185.28495,116.42341 a 25.558903,28.994473 77.486189 0 0 -7.12308,0.77877 25.558903,28.994473 77.486189 0 0 -23.12727,29.16256 7.343759,8.3308906 77.486189 0 0 -1.75286,6.21254 7.343759,8.3308906 77.486189 0 0 6.88485,5.55263 25.558903,28.994473 77.486189 0 0 29.07109,8.97568 25.558903,28.994473 77.486189 0 0 22.95571,-22.32784 7.343759,8.3308906 77.486189 0 0 3.11195,-7.4383 7.343759,8.3308906 77.486189 0 0 -4.37596,-4.95422 25.558903,28.994473 77.486189 0 0 -5.3e-4,0 25.558903,28.994473 77.486189 0 0 -25.64391,-15.96182 z"
       style="fill:#74d414;fill-opacity:1;stroke:none;stroke-width:0.533609"
       id="path838" />
  </g>
</svg>
