<?xml version="1.0" encoding="UTF-8" standalone="no"?>
<svg
   xmlns:dc="http://purl.org/dc/elements/1.1/"
   xmlns:cc="http://creativecommons.org/ns#"
   xmlns:rdf="http://www.w3.org/1999/02/22-rdf-syntax-ns#"
   xmlns:svg="http://www.w3.org/2000/svg"
   xmlns="http://www.w3.org/2000/svg"
   xmlns:sodipodi="http://sodipodi.sourceforge.net/DTD/sodipodi-0.dtd"
   xmlns:inkscape="http://www.inkscape.org/namespaces/inkscape"
   sodipodi:docname="red_velvet.svg"
   inkscape:version="1.0 (6e3e5246a0, 2020-05-07)"
   id="svg1210"
   version="1.1"
   viewBox="0 0 280.61139 166.55312"
   height="166.55312mm"
   width="280.61139mm">
  <defs
     id="defs1204" />
  <sodipodi:namedview
     units="in"
     inkscape:snap-global="false"
     inkscape:bbox-paths="true"
     inkscape:snap-intersection-paths="true"
     inkscape:object-paths="true"
     inkscape:snap-bbox-midpoints="true"
     inkscape:snap-bbox-edge-midpoints="true"
     inkscape:bbox-nodes="true"
     inkscape:snap-bbox="true"
     inkscape:window-maximized="0"
     inkscape:window-y="0"
     inkscape:window-x="0"
     inkscape:window-height="1021"
     inkscape:window-width="1916"
     showgrid="false"
     inkscape:document-rotation="0"
     inkscape:current-layer="layer1"
     inkscape:document-units="mm"
     inkscape:cy="47.094101"
     inkscape:cx="393.81612"
     inkscape:zoom="0.45673188"
     inkscape:pageshadow="2"
     inkscape:pageopacity="0.0"
     borderopacity="1.0"
     bordercolor="#666666"
     pagecolor="#ffffff"
     id="base" />
  <metadata
     id="metadata1207">
    <rdf:RDF>
      <cc:Work
         rdf:about="">
        <dc:format>image/svg+xml</dc:format>
        <dc:type
           rdf:resource="http://purl.org/dc/dcmitype/StillImage" />
        <dc:title></dc:title>
      </cc:Work>
    </rdf:RDF>
  </metadata>
  <g
     transform="translate(34.472358,-64.890107)"
     id="layer1"
     inkscape:groupmode="layer"
     inkscape:label="Layer 1">
    <g
       transform="matrix(0.8730205,0,0,0.84118745,-332.20169,217.83463)"
       id="g901">
      <g
         style="stroke:none"
         transform="matrix(1,0,0,0.71828919,62.732548,-24.20997)"
         id="g863">
        <path
           id="path859"
           style="fill:#db1c43;fill-opacity:1;stroke:none;stroke-width:1.89354"
           d="m 1720.7402,-686.38672 a 378.80092,189.40046 0 0 0 -378.2304,185.25977 v 0.0215 a 378.80092,189.40046 0 0 0 -0.09,4.11914 378.80092,189.40046 0 0 0 0.088,4.08203 l -0.074,269.47461 a 378.80092,189.40046 0 0 0 -0.014,1.63867 378.80092,189.40046 0 0 0 0.014,1.6211 v 0.0937 0 a 378.80092,189.40046 0 0 0 378.7852,187.685545 378.80092,189.40046 0 0 0 378.8008,-189.400395 378.80092,189.40046 0 0 0 0,-0.24023 v -274.95508 a 378.80092,189.40046 0 0 0 -378.8008,-189.40039 378.80092,189.40046 0 0 0 -0.4805,0 z"
           transform="matrix(0.26458333,0,0,0.26458333,-34.472358,64.890107)" />
        <ellipse
           ry="50.112206"
           rx="100.22441"
           cy="-66.604195"
           cx="420.93375"
           id="ellipse861"
           style="fill:#ffe1e1;fill-opacity:1;stroke:none;stroke-width:0.500999" />
      </g>
      <path
         id="ellipse837"
         style="fill:#db1c43;fill-opacity:1;stroke:none;stroke-width:0.424607"
         d="m 483.53939,-170.1912 a 100.22441,35.995056 0 0 0 -100.07346,35.20813 v 0.004 a 100.22441,35.995056 0 0 0 -0.0238,0.78283 100.22441,35.995056 0 0 0 0.0233,0.77578 l -0.0196,51.212939 a 100.22441,35.995056 0 0 0 -0.004,0.311425 100.22441,35.995056 0 0 0 0.004,0.308086 v 0.01781 0 a 100.22441,35.995056 0 0 0 100.22025,35.669141 100.22441,35.995056 0 0 0 100.22438,-35.995043 100.22441,35.995056 0 0 0 0,-0.04566 v -52.254478 a 100.22441,35.995056 0 0 0 -100.22438,-35.99505 100.22441,35.995056 0 0 0 -0.12713,0 z" />
      <path
         id="ellipse835"
         style="fill:#fff6f6;fill-opacity:1;stroke:none;stroke-width:0.424606"
         d="m 483.59834,-159.07865 c -33.26007,1.91885 -64.44177,5.96133 -83.05488,15.88482 l -17.10129,-0.0119 v 0.13281 8.81703 c -5e-5,0.02 -5e-5,0.0399 0,0.0599 5.5e-4,19.87945 44.87267,35.994794 100.22488,35.994701 55.35201,-6e-6 100.22383,-16.115321 100.22438,-35.994701 9e-5,-0.0281 9e-5,-0.0561 0,-0.0842 v -8.78913 l -16.88939,-0.0114 c -18.59644,-9.99607 -49.86055,-15.99799 -83.33446,-15.99799 h -0.0682 z"
         sodipodi:nodetypes="scccccsscccscs" />
      <ellipse
         style="fill:#fff6f6;fill-opacity:1;stroke:#ffd8d8;stroke-width:0.125;stroke-miterlimit:4;stroke-dasharray:none;stroke-opacity:1"
         id="ellipse881"
         cx="483.66632"
         cy="-145.18613"
         rx="100.22441"
         ry="35.995056" />
    </g>
  </g>
</svg>
