<?xml version="1.0" encoding="UTF-8" standalone="no"?>
<svg
   xmlns:dc="http://purl.org/dc/elements/1.1/"
   xmlns:cc="http://creativecommons.org/ns#"
   xmlns:rdf="http://www.w3.org/1999/02/22-rdf-syntax-ns#"
   xmlns:svg="http://www.w3.org/2000/svg"
   xmlns="http://www.w3.org/2000/svg"
   xmlns:sodipodi="http://sodipodi.sourceforge.net/DTD/sodipodi-0.dtd"
   xmlns:inkscape="http://www.inkscape.org/namespaces/inkscape"
   sodipodi:docname="camadas.svg"
   inkscape:version="1.0 (6e3e5246a0, 2020-05-07)"
   id="svg266"
   version="1.1"
   viewBox="0 0 27.176268 28.615957"
   height="28.615957mm"
   width="27.176268mm">
  <defs
     id="defs260" />
  <sodipodi:namedview
     inkscape:window-maximized="0"
     inkscape:window-y="119"
     inkscape:window-x="414"
     inkscape:window-height="902"
     inkscape:window-width="1502"
     showgrid="false"
     inkscape:document-rotation="0"
     inkscape:current-layer="layer1"
     inkscape:document-units="mm"
     inkscape:cy="-282.621"
     inkscape:cx="-236.63855"
     inkscape:zoom="0.35"
     inkscape:pageshadow="2"
     inkscape:pageopacity="0.0"
     borderopacity="1.0"
     bordercolor="#666666"
     pagecolor="#ffffff"
     id="base" />
  <metadata
     id="metadata263">
    <rdf:RDF>
      <cc:Work
         rdf:about="">
        <dc:format>image/svg+xml</dc:format>
        <dc:type
           rdf:resource="http://purl.org/dc/dcmitype/StillImage" />
        <dc:title></dc:title>
      </cc:Work>
    </rdf:RDF>
  </metadata>
  <g
     transform="translate(-3.2683569,-222.94347)"
     id="layer1"
     inkscape:groupmode="layer"
     inkscape:label="Layer 1">
    <g
       transform="matrix(0.53933553,0,0,-0.44677954,-172.45799,513.89669)"
       id="g2289">
      <g
         id="g2272">
        <path
           id="path2268"
           style="fill:#000000;fill-opacity:1;stroke:#ffffff;stroke-width:0.749999;stroke-miterlimit:10;stroke-dasharray:none;stroke-dashoffset:0"
           d="m 468.38281,200.11719 a 32.853637,20.304663 0 0 0 -24.4375,6.73633 h -8.24023 v 11.48437 a 32.853637,20.304663 0 0 0 -0.17578,2.08399 32.853637,20.304663 0 0 0 32.85351,20.30468 32.853637,20.304663 0 0 0 32.85352,-20.30468 32.853637,20.304663 0 0 0 -0.45703,-3.37305 v -10.19531 h -7.95703 a 32.853637,20.304663 0 0 0 -24.43946,-6.73633 z"
           transform="matrix(0.75000002,0,0,-0.75000002,0,768.00002)" />
        <ellipse
           ry="15.228498"
           rx="24.640228"
           transform="scale(1,-1)"
           cy="-613.03326"
           cx="351.17413"
           id="ellipse2270"
           style="fill:#000000;fill-opacity:1;stroke:#ffffff;stroke-width:0.562499;stroke-miterlimit:10;stroke-dasharray:none;stroke-dashoffset:0" />
      </g>
      <g
         id="g2278"
         transform="translate(-0.33418041,11.2006)">
        <path
           id="path2274"
           style="fill:#000000;fill-opacity:1;stroke:#ffffff;stroke-width:0.749999;stroke-miterlimit:10;stroke-dasharray:none;stroke-dashoffset:0"
           d="m 468.38281,200.11719 a 32.853637,20.304663 0 0 0 -24.4375,6.73633 h -8.24023 v 11.48437 a 32.853637,20.304663 0 0 0 -0.17578,2.08399 32.853637,20.304663 0 0 0 32.85351,20.30468 32.853637,20.304663 0 0 0 32.85352,-20.30468 32.853637,20.304663 0 0 0 -0.45703,-3.37305 v -10.19531 h -7.95703 a 32.853637,20.304663 0 0 0 -24.43946,-6.73633 z"
           transform="matrix(0.75000002,0,0,-0.75000002,0,768.00002)" />
        <ellipse
           ry="15.228498"
           rx="24.640228"
           transform="scale(1,-1)"
           cy="-613.03326"
           cx="351.17413"
           id="ellipse2276"
           style="fill:#000000;fill-opacity:1;stroke:#ffffff;stroke-width:0.562499;stroke-miterlimit:10;stroke-dasharray:none;stroke-dashoffset:0" />
      </g>
      <g
         id="g2266"
         transform="translate(-0.43257305,22.680223)">
        <path
           transform="matrix(0.75000002,0,0,-0.75000002,0,768.00002)"
           d="m 468.38281,200.11719 a 32.853637,20.304663 0 0 0 -24.4375,6.73633 h -8.24023 v 11.48437 a 32.853637,20.304663 0 0 0 -0.17578,2.08399 32.853637,20.304663 0 0 0 32.85351,20.30468 32.853637,20.304663 0 0 0 32.85352,-20.30468 32.853637,20.304663 0 0 0 -0.45703,-3.37305 v -10.19531 h -7.95703 a 32.853637,20.304663 0 0 0 -24.43946,-6.73633 z"
           style="fill:#000000;fill-opacity:1;stroke:#ffffff;stroke-width:0.749999;stroke-miterlimit:10;stroke-dasharray:none;stroke-dashoffset:0"
           id="ellipse2251" />
        <ellipse
           style="fill:#000000;fill-opacity:1;stroke:#ffffff;stroke-width:0.562499;stroke-miterlimit:10;stroke-dasharray:none;stroke-dashoffset:0"
           id="ellipse2253"
           cx="351.17413"
           cy="-613.03326"
           transform="scale(1,-1)"
           rx="24.640228"
           ry="15.228498" />
      </g>
    </g>
  </g>
</svg>
