<?xml version="1.0" encoding="UTF-8" standalone="no"?>
<svg
   xmlns:dc="http://purl.org/dc/elements/1.1/"
   xmlns:cc="http://creativecommons.org/ns#"
   xmlns:rdf="http://www.w3.org/1999/02/22-rdf-syntax-ns#"
   xmlns:svg="http://www.w3.org/2000/svg"
   xmlns="http://www.w3.org/2000/svg"
   xmlns:sodipodi="http://sodipodi.sourceforge.net/DTD/sodipodi-0.dtd"
   xmlns:inkscape="http://www.inkscape.org/namespaces/inkscape"
   inkscape:version="1.0 (6e3e5246a0, 2020-05-07)"
   sodipodi:docname="greencake.svg"
   id="svg1607"
   version="1.1"
   viewBox="0 0 15.81849 15.129409"
   height="15.129409mm"
   width="15.81849mm">
  <defs
     id="defs1601" />
  <sodipodi:namedview
     inkscape:window-maximized="0"
     inkscape:window-y="119"
     inkscape:window-x="414"
     inkscape:window-height="902"
     inkscape:window-width="1502"
     showgrid="false"
     inkscape:document-rotation="0"
     inkscape:current-layer="layer1"
     inkscape:document-units="mm"
     inkscape:cy="-100.03992"
     inkscape:cx="-36.070941"
     inkscape:zoom="1.8635403"
     inkscape:pageshadow="2"
     inkscape:pageopacity="0.0"
     borderopacity="1.0"
     bordercolor="#666666"
     pagecolor="#ffffff"
     id="base" />
  <metadata
     id="metadata1604">
    <rdf:RDF>
      <cc:Work
         rdf:about="">
        <dc:format>image/svg+xml</dc:format>
        <dc:type
           rdf:resource="http://purl.org/dc/dcmitype/StillImage" />
        <dc:title></dc:title>
      </cc:Work>
    </rdf:RDF>
  </metadata>
  <g
     transform="translate(-299.00742,-11.334101)"
     id="layer1"
     inkscape:groupmode="layer"
     inkscape:label="Layer 1">
    <g
       transform="matrix(0.35277777,0,0,-0.35277777,-109.43026,262.48022)"
       id="g1580">
      <path
         id="path30"
         style="fill:#5b3706;fill-opacity:1;fill-rule:nonzero;stroke:none"
         d="m 1163.2808,672.6699 v 0 c -4.046,4.511 -3.669,11.447 0.842,15.493 l 20.196,18.114 c 4.511,4.046 11.447,3.669 15.493,-0.841 4.046,-4.511 3.669,-11.448 -0.842,-15.494 l -20.196,-18.114 c -4.511,-4.046 -11.447,-3.669 -15.493,0.842" />
      <path
         id="path34"
         style="fill:#ffd9a4;fill-opacity:1;fill-rule:nonzero;stroke:none"
         d="m 1162.4365,674.2129 v 0 c -4.062,4.528 -3.683,11.491 0.845,15.553 l 20.134,18.058 c 4.527,4.061 11.491,3.683 15.552,-0.845 4.062,-4.528 3.683,-11.492 -0.845,-15.553 l -20.133,-18.058 c -4.528,-4.062 -11.491,-3.683 -15.553,0.845" />
      <path
         id="path38"
         style="fill:#a9ee8a;fill-opacity:1;fill-rule:nonzero;stroke:none"
         d="m 1160.1299,676.0835 v 0 c -3.396,3.787 -3.08,9.61 0.707,13.007 l 22.817,20.466 c 3.787,3.396 9.611,3.08 13.007,-0.707 3.397,-3.787 3.08,-9.61 -0.707,-13.007 l -22.817,-20.466 c -3.787,-3.397 -9.611,-3.08 -13.007,0.707" />
      <path
         id="path42"
         style="fill:none;stroke:#25560f;stroke-width:1;stroke-linecap:butt;stroke-linejoin:miter;stroke-miterlimit:10;stroke-dasharray:none;stroke-opacity:1"
         d="m 1184.5,709.5 c 1.243,-0.182 2.925,-0.646 4,-2 1.66,-2.09 0.341,-4.373 2,-6 1.607,-1.577 3.779,-0.354 5,-2 0.819,-1.105 0.784,-2.928 0,-4 -1.612,-2.206 -6.37,-1.215 -9,0 -2.884,1.333 -2.418,3.844 -6,6 -1.154,0.695 -2.83,1.676 -4,1 -1.096,-0.633 -1.447,-2.548 -1,-4 0.739,-2.402 3.262,-2.243 6,-5 2.05,-2.064 4.011,-5.551 3,-7 -1.023,-1.467 -5.297,-1.143 -8,1 -3.566,2.827 -2.56,7.366 -5,8 -1.9,0.494 -4.736,-1.681 -5,-4 -0.247,-2.164 1.802,-3.953 3,-5 3.042,-2.658 5.598,-2.307 6,-4 0.364,-1.529 -1.262,-3.738 -3,-4 -1.38,-0.208 -2.27,0.896 -6,4 -5.166,4.298 -5.785,4.116 -6,4 -1.101,-0.592 -0.799,-4.38 1,-7 2.501,-3.642 7.162,-3.957 8,-4" />
    </g>
  </g>
</svg>
